<?xml version="1.0" encoding="utf-8"?>
<svg xmlns="http://www.w3.org/2000/svg" viewBox="0 0 500 500">
  <defs>
    <linearGradient gradientUnits="userSpaceOnUse" x1="132.996" y1="23.847" x2="132.996" y2="244.727" id="gradient-0" gradientTransform="matrix(0.949728, 0, 0, 0.949728, 6.536163, 29.863851)">
      <stop offset="0" style="stop-color: rgb(67, 59, 255);"/>
      <stop offset="1" style="stop-color: rgb(158, 223, 255);"/>
    </linearGradient>
    <linearGradient gradientUnits="userSpaceOnUse" x1="413.146" y1="30.75" x2="413.146" y2="240.012" id="gradient-1" gradientTransform="matrix(0.949728, 0, 0, 0.949728, 6.536163, 29.863851)">
      <stop offset="0" style="stop-color: rgb(158, 223, 255);"/>
      <stop offset="1" style="stop-color: rgb(67, 59, 255);"/>
    </linearGradient>
    <linearGradient gradientUnits="userSpaceOnUse" x1="161.289" y1="295.418" x2="161.289" y2="488.155" id="gradient-2" gradientTransform="matrix(0.949728, 0, 0, 0.949728, 6.536163, 29.863851)">
      <stop offset="0" style="stop-color: rgb(67, 59, 255);"/>
      <stop offset="1" style="stop-color: rgb(158, 223, 255);"/>
    </linearGradient>
    <linearGradient gradientUnits="userSpaceOnUse" x1="344.353" y1="166.246" x2="344.353" y2="487.138" id="gradient-3" gradientTransform="matrix(0.949728, 0, 0, 0.949728, 6.536163, 29.863851)">
      <stop offset="0" style="stop-color: rgb(158, 223, 255);"/>
      <stop offset="1" style="stop-color: rgb(67, 59, 255);"/>
    </linearGradient>
  </defs>
  <g id="_x32_" transform="matrix(1.002399, 0, 0, 1, -239.311417, -14.742016)" style="">
    <g transform="matrix(1, 0, 0, 1, 238.67659, -8.867496)">
      <path class="st0" d="M 348.535 257.809 L 358.18 248.059 C 358.18 248.059 373.005 235.327 389.907 241.1 C 419.333 251.146 453.331 240.269 476.911 216.659 C 483.619 209.951 491.765 196.493 491.765 196.493 C 492.7 195.216 493.027 193.599 492.641 192.056 L 490.816 184.547 C 490.475 183.138 489.569 181.935 488.323 181.194 C 487.076 180.466 485.577 180.273 484.197 180.674 L 426.279 196.79 C 424.127 197.384 421.826 196.582 420.521 194.787 L 393.914 158.133 C 393.098 157.02 392.756 155.625 392.949 154.274 L 398.306 115.336 C 398.588 113.214 400.102 111.492 402.165 110.914 L 463.333 93.893 C 466.093 93.12 467.77 90.271 467.088 87.467 L 464.669 77.628 C 464.342 76.233 463.452 75.046 462.235 74.304 C 462.235 74.304 457.441 71.129 453.954 69.334 C 419.215 51.392 375.468 56.958 346.338 86.102 C 324.821 107.619 316.392 137.091 320.339 165.078 C 323.381 186.595 321.957 198.036 312.667 207.86 C 311.821 208.736 309.151 211.406 305.025 215.458 L 348.535 257.809 Z" style="fill: url(&quot;#gradient-1&quot;);"/>
      <path class="st0" d="M 207.292 310.43 C 142.37 373.334 71.555 441.774 71.555 441.774 C 69.136 444.09 67.756 447.28 67.712 450.619 C 67.667 453.943 68.988 457.164 71.333 459.523 L 101.665 489.855 C 104.04 492.214 107.245 493.52 110.584 493.477 C 113.924 493.447 117.098 492.052 119.399 489.648 L 251.722 355.781 L 207.292 310.43 Z" style="fill: url(&quot;#gradient-2&quot;);"/>
      <path class="st0" d="M 482.758 458.543 C 485.117 456.184 486.423 452.978 486.379 449.639 C 486.35 446.3 484.955 443.125 482.551 440.809 L 222.518 187.751 L 180.775 229.51 L 434.678 488.667 C 436.994 491.086 440.169 492.466 443.508 492.511 C 446.847 492.555 450.052 491.234 452.427 488.875 L 482.758 458.543 Z" style="fill: url(&quot;#gradient-3&quot;);"/>
      <path class="st0" d="M 247.953 60.844 C 216.641 48.631 166.009 46.865 136.687 76.173 C 113.596 99.264 79.822 133.054 79.822 133.054 C 67.787 145.073 78.961 157.005 70.072 165.879 C 61.183 174.768 46.981 165.879 38.983 173.878 L 9.66 203.214 C 5.49 207.369 5.49 214.136 9.66 218.306 L 50.514 259.16 C 54.684 263.33 61.451 263.33 65.62 259.16 L 94.943 229.837 C 102.957 221.838 94.052 207.637 102.957 198.763 C 114.932 186.772 128.006 188.806 135.559 196.344 L 150.651 211.436 L 167.005 215.739 L 208.748 173.996 L 203.94 158.146 C 190.628 144.821 188.729 129.402 197.069 121.062 C 209.98 108.152 231.304 89.499 251.278 81.501 C 264.009 76.411 260.166 63.738 247.953 60.844 Z M 191.325 128.141 C 191.266 128.185 196.89 121.226 196.994 121.136 L 191.325 128.141 Z" style="fill: url(&quot;#gradient-0&quot;);"/>
    </g>
  </g>
</svg>